HIERARCHY
ROOT SimulationBone
{
	OFFSET 0.000000 0.000000 0.000000
	CHANNELS 6 Xposition Yposition Zposition Zrotation Yrotation Xrotation 
	JOINT Hips
	{
		OFFSET 0.000000 0.000000 0.000000
		CHANNELS 6 Xposition Yposition Zposition Zrotation Yrotation Xrotation 
		JOINT RightUpLeg
		{
			OFFSET 0.103459 1.857823 10.548503
			CHANNELS 3 Zrotation Yrotation Xrotation
			JOINT RightLeg
			{
				OFFSET 43.499996 -0.000023 0.000000
				CHANNELS 3 Zrotation Yrotation Xrotation
				JOINT RightFoot
				{
					OFFSET 42.372200 0.000004 0.000000
					CHANNELS 3 Zrotation Yrotation Xrotation
					JOINT RightToe
					{
						OFFSET 17.300018 0.000006 0.000005
						CHANNELS 3 Zrotation Yrotation Xrotation
						End Site
						{
							OFFSET 0.000000 0.000000 0.000000
						}
					}
				}
			}
		}
		JOINT LeftUpLeg
		{
			OFFSET 0.103455 1.857822 -10.548502
			CHANNELS 3 Zrotation Yrotation Xrotation
			JOINT LeftLeg
			{
				OFFSET 43.500046 0.000008 0.000013
				CHANNELS 3 Zrotation Yrotation Xrotation
				JOINT LeftFoot
				{
					OFFSET 42.372261 -0.000023 0.000013
					CHANNELS 3 Zrotation Yrotation Xrotation
					JOINT LeftToe
					{
						OFFSET 17.299988 -0.000007 0.000011
						CHANNELS 3 Zrotation Yrotation Xrotation
						End Site
						{
							OFFSET 0.000000 0.000000 0.000000
						}
					}
				}
			}
		}
		JOINT Spine
		{
			OFFSET 6.901964 -2.603734 -0.000001
			CHANNELS 3 Zrotation Yrotation Xrotation
			JOINT Spine1
			{
				OFFSET 12.588106 0.000013 -0.000000
				CHANNELS 3 Zrotation Yrotation Xrotation
				JOINT Spine2
				{
					OFFSET 12.343193 -0.000017 0.000001
					CHANNELS 3 Zrotation Yrotation Xrotation
					JOINT Neck
					{
						OFFSET 25.832893 -0.000002 -0.000002
						CHANNELS 3 Zrotation Yrotation Xrotation
						JOINT Head
						{
							OFFSET 11.766612 0.000007 0.000002
							CHANNELS 3 Zrotation Yrotation Xrotation
							End Site
							{
								OFFSET 0.000000 0.000000 0.000000
							}
						}
					}
					JOINT RightShoulder
					{
						OFFSET 19.745903 -1.480356 6.000103
						CHANNELS 3 Zrotation Yrotation Xrotation
						JOINT RightArm
						{
							OFFSET 11.284128 0.000005 -0.000009
							CHANNELS 3 Zrotation Yrotation Xrotation
							JOINT RightForeArm
							{
								OFFSET 33.000053 -0.000022 0.000028
								CHANNELS 3 Zrotation Yrotation Xrotation
								JOINT RightHand
								{
									OFFSET 25.200006 0.000028 0.000005
									CHANNELS 3 Zrotation Yrotation Xrotation
									End Site
									{
										OFFSET 0.000000 0.000000 0.000000
									}
								}
							}
						}
					}
					JOINT LeftShoulder
					{
						OFFSET 19.746094 -1.480350 -6.000075
						CHANNELS 3 Zrotation Yrotation Xrotation
						JOINT LeftArm
						{
							OFFSET 11.284135 -0.000011 -0.000017
							CHANNELS 3 Zrotation Yrotation Xrotation
							JOINT LeftForeArm
							{
								OFFSET 33.000092 0.000037 0.000003
								CHANNELS 3 Zrotation Yrotation Xrotation
								JOINT LeftHand
								{
									OFFSET 25.199785 0.000114 0.000427
									CHANNELS 3 Zrotation Yrotation Xrotation
									End Site
									{
										OFFSET 0.000000 0.000000 0.000000
									}
								}
							}
						}
					}
				}
			}
		}
	}
}
MOTION
Frames: 5
Frame Time: 0.033333
13.030478 0.000000 387.954819 0.000000 -86.844156 0.000000 -6.326428 89.054878 2.009214 86.151620 2.025632 -179.659813 159.253674 -2.499410 173.099779 -45.846771 2.049969 4.056083 89.260894 -2.312227 3.092306 21.454557 0.003105 0.000020 155.838102 9.454702 -174.906187 -63.238816 6.051522 -2.108777 82.794863 1.909463 2.648354 21.454551 -0.003087 -0.000003 11.822129 -0.324909 0.018537 13.631633 -0.649690 -0.001375 13.313509 -0.649796 0.002531 0.252631 -2.379748 -3.671331 -32.552251 8.254642 -8.621466 161.355802 -74.713800 17.659106 -12.600678 53.662071 23.747176 -57.070496 -23.132913 2.579599 -0.350282 -16.946147 14.908594 -157.049927 80.820734 24.832715 -7.329969 -61.609372 -23.243436 -76.314496 14.677571 -2.735193 -2.877375 4.973681 -44.834082 
13.135778 0.000000 390.527445 0.000000 -85.650571 0.000000 -6.306911 89.168587 1.303915 86.875162 1.637596 179.188018 161.956940 -1.996987 172.408113 -45.414990 2.071632 4.243447 89.198063 -2.389084 3.379386 21.454557 0.003117 0.000017 153.970878 8.446407 -173.598875 -58.962434 6.263802 -1.476644 84.196562 1.423343 2.638569 21.454550 -0.003086 0.000003 11.745081 -0.370902 -0.075821 13.478210 -0.730335 -0.194383 13.160083 -0.731634 -0.189980 0.546232 -2.064432 -3.652554 -31.687256 8.169416 -8.414065 160.987408 -74.855738 18.028639 -12.619657 53.830401 24.166102 -58.115703 -22.880164 2.601666 -0.215588 -16.802212 14.295729 -155.545442 80.735028 26.360507 -7.527382 -61.344272 -26.407613 -73.129715 15.981842 -2.691205 -1.804478 4.773135 -40.020872 
13.275449 0.000000 393.214332 0.000000 -84.698555 0.000000 -6.253548 89.248901 0.687821 87.643089 1.369837 178.264721 164.825538 -1.557600 171.957662 -44.859101 2.004379 4.367864 89.099114 -2.434873 3.572960 21.454555 0.003102 0.000017 152.698796 7.246904 -172.077682 -52.892261 6.173434 0.071897 84.395450 0.222736 2.047034 21.454555 -0.003102 0.000001 11.672090 -0.382818 -0.175601 13.332906 -0.742760 -0.394185 13.014774 -0.745243 -0.389709 1.204089 -1.858635 -3.730725 -31.277680 7.911061 -8.280755 160.081493 -74.827400 18.954692 -12.508984 53.828526 24.533087 -59.116394 -22.459679 2.610696 0.123699 -16.676935 13.328584 -154.250697 80.560415 27.678102 -7.365575 -60.905002 -29.646774 -69.576610 17.247196 -2.631289 -0.829525 4.510268 -35.839140 
13.445804 0.000000 396.007509 0.000000 -83.967270 0.000000 -6.146154 89.142189 0.140774 88.393393 0.754922 177.501511 167.889724 -0.711392 171.498236 -44.082703 1.949891 4.465478 89.282880 -2.482863 3.674008 21.454558 0.003106 0.000020 151.660334 6.193601 -171.241530 -45.787665 6.137264 1.932595 82.857032 -1.357293 0.626440 21.454553 -0.003078 0.000001 11.579865 -0.464430 -0.334648 13.150058 -0.887709 -0.719957 12.831940 -0.892178 -0.714591 2.068497 -1.898709 -3.663039 -31.172280 7.903152 -8.191044 160.244612 -74.648223 18.796887 -12.481196 53.578883 25.078107 -60.105111 -22.241973 2.633820 0.315399 -16.368726 12.408948 -153.328430 80.449096 28.616479 -7.085324 -60.730060 -32.924824 -65.444789 18.735615 -2.566811 -0.072346 4.153647 -32.947163 
13.643154 0.000000 398.899007 0.000000 -83.438730 0.000000 -5.991466 88.886879 -0.304529 89.114117 0.052302 177.014198 171.206027 0.270799 171.383762 -42.933910 1.780534 4.521190 89.820225 -2.518239 3.709752 21.454560 0.003117 0.000020 150.945104 5.196800 -170.069279 -38.160386 5.254041 3.178701 80.317499 -2.101353 1.061577 21.454555 -0.003086 0.000002 11.465875 -0.566818 -0.504802 12.924487 -1.073543 -1.069852 12.606391 -1.080126 -1.063355 2.794241 -1.910455 -3.647409 -30.714565 7.827068 -8.085771 160.494037 -74.331159 18.557492 -12.534101 53.045889 25.785677 -61.000515 -22.232879 2.668299 -0.129280 -15.526697 12.759304 -152.392544 80.159810 29.573794 -6.470684 -60.568758 -36.017900 -61.011607 19.856403 -2.470104 0.150525 4.259120 -31.245766 
